<?xml version="1.0" encoding="UTF-8" standalone="no"?>
<!-- Generator: Adobe Illustrator 20.0.0, SVG Export Plug-In . SVG Version: 6.00 Build 0)  -->

<svg
   xmlns:dc="http://purl.org/dc/elements/1.1/"
   xmlns:cc="http://creativecommons.org/ns#"
   xmlns:rdf="http://www.w3.org/1999/02/22-rdf-syntax-ns#"
   xmlns:svg="http://www.w3.org/2000/svg"
   xmlns="http://www.w3.org/2000/svg"
   xmlns:sodipodi="http://sodipodi.sourceforge.net/DTD/sodipodi-0.dtd"
   xmlns:inkscape="http://www.inkscape.org/namespaces/inkscape"
   version="1.1"
   id="Layer_1"
   x="0px"
   y="0px"
   viewBox="0 0 999.99998 456.52961"
   xml:space="preserve"
   sodipodi:docname="logo_1.svg"
   width="1000"
   height="456.5296"
   inkscape:version="0.92.4 (5da689c313, 2019-01-14)"><metadata
   id="metadata54"><rdf:RDF><cc:Work
       rdf:about=""><dc:format>image/svg+xml</dc:format><dc:type
         rdf:resource="http://purl.org/dc/dcmitype/StillImage" /><dc:title></dc:title></cc:Work></rdf:RDF></metadata><defs
   id="defs52" /><sodipodi:namedview
   pagecolor="#ffffff"
   bordercolor="#666666"
   borderopacity="1"
   objecttolerance="10"
   gridtolerance="10"
   guidetolerance="10"
   inkscape:pageopacity="0"
   inkscape:pageshadow="2"
   inkscape:window-width="1920"
   inkscape:window-height="1017"
   id="namedview50"
   showgrid="false"
   fit-margin-top="0"
   fit-margin-left="0"
   fit-margin-right="0"
   fit-margin-bottom="0"
   inkscape:zoom="0.83337133"
   inkscape:cx="485.61125"
   inkscape:cy="149.77924"
   inkscape:window-x="1912"
   inkscape:window-y="-8"
   inkscape:window-maximized="1"
   inkscape:current-layer="g112" />
<style
   type="text/css"
   id="style2">
	.Arched_x0020_Green{fill:url(#SVGID_1_);stroke:black;stroke-width:0.25;stroke-miterlimit:1;}
	.st0{fill:black;}
</style>
<linearGradient
   id="SVGID_1_"
   gradientUnits="userSpaceOnUse"
   x1="-130.0161"
   y1="371.7056"
   x2="-129.30901"
   y2="370.9985">
	<stop
   offset="0"
   style="stop-color:#20AC4B"
   id="stop4" />
	<stop
   offset="0.9831"
   style="stop-color:#19361A"
   id="stop6" />
</linearGradient>

<g
   id="g112"
   transform="translate(0,355.4996)"><polygon
     id="polygon57"
     points="53.74,8.46 41.08,6.76 41.08,47.33 10.74,2.13 0,0 0,83.98 13.56,81.57 13.56,33.06 44.94,76.39 53.74,75.46 "
     style="fill:#000000"
     transform="matrix(4.5187528,0,0,4.5187528,0,-355.4996)" /><polygon
     id="polygon59"
     points="66.58,9.96 66.58,73.77 77.17,72.48 77.17,11.25 "
     style="fill:#000000"
     transform="matrix(4.5187528,0,0,4.5187528,0,-355.4996)" /><polygon
     id="polygon61"
     points="133.89,68.03 133.89,16.07 122.66,15.14 122.66,46.56 97.83,13.29 89.42,12.55 89.42,71.55 100.63,70.25 100.63,35.75 125,68.59 "
     style="fill:#000000"
     transform="matrix(4.5187528,0,0,4.5187528,0,-355.4996)" /><path
     id="path63"
     d="m 889.06462,-140.45215 h -62.58473 l 31.63127,-80.75011 z m -60.77723,-133.21283 -90.87212,219.656571 60.05423,-2.485314 14.46001,-39.765025 h 91.82105 l 13.55626,34.975147 h 56.93629 L 888.83868,-272.21898 Z"
     inkscape:connector-curvature="0"
     style="fill:#000000;stroke-width:4.51875305" /><path
     id="path65"
     d="M 684.31993,38.490461 A 461.54541,461.54541 0 0 0 706.91369,-106.74225 V -278.6808 l -53.68278,-2.5305 v 174.24311 c 0,117.894259 -42.61184,194.984182 -42.61184,194.984182 z"
     inkscape:connector-curvature="0"
     style="fill:#000000;stroke-width:4.51875305" /><path
     id="path67"
     d="M 714.95707,-103.75988 A 462.6751,462.6751 0 0 1 692.09218,43.461089 l -0.54225,1.446001 -79.30411,53.050158 13.82738,3.072752 73.79124,-49.706281 1.67194,-4.518753 c 0.94893,-2.575689 23.49751,-63.849977 23.49751,-150.745596 v -164.8441 l -10.03163,-10.70945 z"
     inkscape:connector-curvature="0"
     style="fill:#000000;stroke-width:4.51875305" /><polygon
     id="polygon69"
     points="15.24,36.89 15.24,83.25 0.92,85.87 2.9,87.75 17.46,85.11 17.46,40.17 "
     style="fill:#000000"
     transform="matrix(4.5187528,0,0,4.5187528,0,-355.4996)" /><polygon
     id="polygon71"
     points="55.57,77.18 45.75,78.25 47.17,80.29 57.79,79.19 57.79,10.82 55.57,9.27 "
     style="fill:#000000"
     transform="matrix(4.5187528,0,0,4.5187528,0,-355.4996)" /><polygon
     id="polygon73"
     points="79,74.2 66.98,75.65 68.71,77.64 81.23,76.17 81.23,13.13 79,11.1 "
     style="fill:#000000"
     transform="matrix(4.5187528,0,0,4.5187528,0,-355.4996)" /><polygon
     id="polygon75"
     points="137.95,18.41 135.72,15.84 135.72,69.8 125.23,70.41 126.94,72.54 137.95,71.89 "
     style="fill:#000000"
     transform="matrix(4.5187528,0,0,4.5187528,0,-355.4996)" /><polygon
     id="polygon77"
     points="102.32,71.98 89.26,73.36 91.01,75.33 104.54,73.96 104.54,42.99 102.32,39.4 "
     style="fill:#000000"
     transform="matrix(4.5187528,0,0,4.5187528,0,-355.4996)" /><polygon
     id="polygon79"
     points="191.47,36.62 190.62,33.02 185.07,47.23 187.49,47.23 "
     style="fill:#000000"
     transform="matrix(4.5187528,0,0,4.5187528,0,-355.4996)" /><polygon
     id="polygon81"
     points="177.82,67.98 163.04,68.55 163.79,70.8 179.4,70.14 183.38,59.18 181.02,59.18 "
     style="fill:#000000"
     transform="matrix(4.5187528,0,0,4.5187528,0,-355.4996)" /><polygon
     id="polygon83"
     points="198.19,18.09 218,66.94 203.73,67 204.97,69.19 221.3,69.17 201.34,19.94 "
     style="fill:#000000"
     transform="matrix(4.5187528,0,0,4.5187528,0,-355.4996)" /></g></svg>